<?xml version="1.0" encoding="UTF-8"?>
<svg width="221.54mm" height="218.21mm" version="1.1" viewBox="0 0 221.54 218.21" xml:space="preserve"
    xmlns="http://www.w3.org/2000/svg">
    <g transform="translate(-.77368 -29.079)" stroke="#fff" fill="#fff" stroke-linejoin="round" stroke-width="1.25">
        <path d="m109.23 65.011c-20.491 6.6478-58.662 21.773-72.836 47.359 11.556 11.813 19.723 23.124 25.452 34.365 14.443-8.554 30.602-13.615 47.249-14.148zm-0.17622 88.715c-13.492 0.1836-26.431 3.9355-40.114 10.558 4.7268 15.476 5.7931 31.239 5.6379 48.4 20.751 8.8454 28.904 22.507 34.291 33.98z" stroke-linecap="round"/>
        <path d="m109.23 65.011-0.13436 67.575c15.745-0.50441 31.926 3.0443 47.507 11.529 6.2135-11.437 14.489-21.832 25.163-30.417-12.006-17.95-37.875-38.102-72.536-48.687zm0.78083 88.704c-0.31961 3.5e-4 -0.63809 7e-3 -0.95705 0.0114l-0.185 92.937c5.27-11.527 18.357-31.62 32.324-34.253-0.27589-16.532 1.9292-33.664 7.3417-49.705-13.926-6.1679-26.458-9.004-38.523-8.9907z" fill="none"/>
    </g>
    <g transform="translate(-.77368 -29.079)" stroke="#fff" stroke-linejoin="round">
        <path d="m164.19 170.7c-43.691-25.066-72.826-20.578-110.06 1.6202-0.37531-5.9304-1.6004-12.711-3.872-17.695 33.601-26.102 80.131-32.077 120.24-1.4769-4.0532 5.4188-4.2636 9.9157-6.3078 17.552z" fill="none" stroke="#fff" stroke-width="1.25"/>
        <path d="m65.544 165.97c1.8506 10.234-0.19584 15.834-5.7682 17.168-12.858 3.0794-23.091 1.9839-35.45 3.0943-5.6103 0.50406-11.212 5.6694-13.69 9.0299-0.95463-6.2938 3.0694-10.815 7.8153-15.23-5.259-0.0933-11.921 1.2381-17.052 5.2382 9.4093-20.205 39.722-19.831 51.739-20.946" fill="none" stroke="#fff" stroke-width="1.25"/>
        <path d="m167.07 160.06c-0.40072 2.5258 1.1413 4.3664 2.6504 4.4162 14.273 0.47117 43.998 1.822 51.972 21.026-1.841-1.2978-6.3947-4.4756-13.437-4.586 3.8921 4.2628 8.3807 7.8605 8.5952 15.637-4.8017-3.2819-12.833-9.0927-18.05-10.491-6.9546-1.8646-55.82 7.8625-47.064-21.894" fill="none" stroke="#fff" stroke-linecap="round" stroke-width="1.25"/>
        <path d="m164.19 170.7c-0.0897 1.1895 0.66585 2.2278-1.118 3.103-1.5728 0.77164-7.9066-0.88402-9.2611-0.24103-0.94293 0.4476-1.516 1.4066-2.256 2.0857" fill="none" stroke="#fff" stroke-linecap="round" stroke-width="1.25"/>
        <g class="UnoptimicedTransforms" stroke-linecap="round" stroke-width=".1" fill="#fff" aria-label="A.M.H">
            <path d="m82.806 154.95 0.19826 0.55067c-1.5384 0.55164-3.067 1.1401-4.5833 1.7616l-0.22372-0.53973c0.48743-0.30719 0.97777-0.61113 1.471-0.9116-0.12902-4.9752-0.03733-10.006 0.30568-15.068 0.7675-0.26042 1.5387-0.5125 2.3134-0.75593 3.3423 3.8587 6.4581 7.8482 9.3085 11.952 0.63466-0.0588 1.2682-0.11051 1.9003-0.15497l0.13076 0.56978c-2.0202 0.46814-4.0329 1.0117-6.033 1.6224l-0.17055-0.55996c0.60999-0.29015 1.2233-0.57408 1.84-0.85146-0.86101-1.2369-1.7436-2.4641-2.6469-3.6811-1.9685 0.58808-3.921 1.2383-5.8536 1.944-5e-3 1.5182 0.01109 3.0324 0.04738 4.5418 0.66524-0.14661 1.3306-0.28653 1.9958-0.41956zm-1.7594-12.889c-0.16097 2.58-0.2571 5.1519-0.29236 7.7128 1.7273-0.62473 3.4708-1.2052 5.2278-1.737-1.5856-2.0241-3.2324-4.0168-4.9355-5.9759z"/>
            <path d="m97.651 150.49c0.0621 0.35445-0.01064 0.684-0.21435 0.98992-0.19658 0.30466-0.47832 0.49156-0.8484 0.5636-0.3701 0.072-0.70495 5e-3 -1.0081-0.20242-0.29588-0.20892-0.4825-0.48855-0.55617-0.84112-0.07667-0.36691-0.01461-0.7033 0.18989-1.008 0.20448-0.30465 0.49586-0.4947 0.8711-0.5674 0.37522-0.0727 0.71569-5e-3 1.0177 0.20129 0.30224 0.20646 0.4837 0.49525 0.54833 0.86412z"/>
            <path d="m109.03 150.33c-0.12522 2e-3 -0.25047 5e-3 -0.37573 7e-3 -1.8868-4.2375-4.1151-8.387-6.6452-12.432 0.39196 3.9844 0.78545 7.9687 1.1805 11.953 0.53075 0.0443 1.0595 0.0946 1.586 0.15083l0.0464 0.58114c-1.6373 0.13136-3.2756 0.32151-4.9123 0.56614l-0.08515-0.57723c0.60622-0.19068 1.2151-0.37391 1.8266-0.5494l-1.5813-12.91c-0.74255-6e-3 -1.4858-3e-3 -2.2296 9e-3l-0.08515-0.57722c1.7338-0.25286 3.478-0.45716 5.2309-0.60989 2.1975 3.5384 4.1641 7.1553 5.8737 10.84 1.2415-2.6994 2.6293-5.3683 4.1731-7.9983 0.60245-1.0227 1.2283-2.0377 1.8769-3.0445 1.6828 0.10097 3.3589 0.25507 5.026 0.46045l-0.0713 0.5794c-0.79115-6e-3 -1.5816-8e-5 -2.3709 0.0175-0.4123 4.3252-0.82284 8.6507-1.2316 12.976 0.6505 0.15926 1.2975 0.32853 1.9408 0.50751l-0.0713 0.5794c-1.8347-0.22557-3.6747-0.37131-5.5144-0.43258-0.0923-4e-3 -0.18463-7e-3 -0.27696-0.0107l0.0183-0.58389c0.0936-9e-3 0.18718-0.0183 0.28083-0.0272 0.64112-0.0651 1.2849-0.12013 1.9309-0.16503 0.33724-3.8306 0.68956-7.6599 1.0569-11.488-0.96193 1.482-1.8734 2.9824-2.7324 4.4996-1.4296 2.5261-2.715 5.0881-3.8648 7.6784z"/>
            <path d="m122.95 150.6c-0.0689 0.3533-0.25347 0.63498-0.54915 0.84777-0.28882 0.21428-0.61346 0.28828-0.97818 0.22411-0.3647-0.0642-0.64786-0.24511-0.85328-0.54611-0.19832-0.2998-0.2721-0.62681-0.21686-0.98238 0.0575-0.37005 0.23167-0.66274 0.52711-0.87555 0.29522-0.21265 0.63111-0.28723 1.0033-0.22184 0.37221 0.0654 0.6629 0.25007 0.86849 0.55075 0.20562 0.30072 0.27031 0.63559 0.19856 1.0032z"/>
            <path d="m124.8 152.03 0.12923-0.5696c0.6291 0.0416 1.2594 0.0919 1.8906 0.15105l3.2191-12.625c-0.69439-0.27509-1.3939-0.54137-2.0984-0.79859l0.12923-0.5696c2.2815 0.51571 4.538 1.1256 6.7634 1.8246l-0.17546 0.55753c-0.73669-0.13126-1.4742-0.2527-2.2122-0.36427l-1.6005 5.5859c2.4329 0.69685 4.8329 1.5099 7.1898 2.4309l2.1153-5.414c-0.65271-0.35783-1.3113-0.70795-1.9757-1.0501l0.19901-0.54966c2.1862 0.79128 4.338 1.6686 6.4491 2.6268l-0.24084 0.53235c-0.71252-0.21839-1.4271-0.42752-2.1433-0.62729l-5.0786 12.005c0.54178 0.33645 1.0785 0.67903 1.61 1.0275l-0.24084 0.53236c-1.7702-0.79782-3.5692-1.5292-5.3908-2.1889l0.19901-0.54967c0.62294 0.12004 1.2459 0.24836 1.8685 0.38488l2.2679-5.8044c-2.3288-0.90986-4.6994-1.7132-7.1019-2.4016l-1.7159 5.9886c0.5755 0.26859 1.1467 0.54441 1.7134 0.82718l-0.17546 0.55753c-1.8474-0.58268-3.714-1.0908-5.5937-1.5191z"/>
        </g>
    </g>
    <g transform="translate(-.77368 -29.079)" stroke="#fff" fill="#fff" stroke-linecap="round" stroke-linejoin="round" stroke-width="1.25">
        <path d="m123.63 41.251 5.1104 30.484 23.52 0.17225 4.2863 16.514" fill="none"/>
        <path d="m63.859 85.525 3.9271-14.575 24.488-0.46886 4.8486-29.688" fill="none"/>
        <path d="m123.63 41.251-0.97204-7.2757c-7.7479-4.6985-15.476-6.8132-24.566 0.52326l-0.97189 6.296c5.777-4.1336 18.549-4.5204 26.51 0.4565z"/>
    </g>
</svg>

